HIERARCHY
ROOT Hips
{
	OFFSET 0.00000 0.00000 0.00000
	CHANNELS 6 Xposition Yposition Zposition Zrotation Yrotation Xrotation 
	JOINT LHipJoint
	{
		OFFSET 0 0 0
		CHANNELS 3 Zrotation Yrotation Xrotation
		JOINT LeftHip
		{
			OFFSET 1.76014 -1.80163 0.38499
			CHANNELS 3 Zrotation Yrotation Xrotation
			JOINT LeftKnee
			{
				OFFSET 2.46817 -6.78126 0.00000
				CHANNELS 3 Zrotation Yrotation Xrotation
				JOINT LeftAnkle
				{
					OFFSET 2.79348 -7.67503 0.00000
					CHANNELS 3 Zrotation Yrotation Xrotation
					JOINT LeftToe
					{
						OFFSET 0.09421 -0.25885 1.91403
						CHANNELS 3 Zrotation Yrotation Xrotation
						End Site
						{
							OFFSET 0.00000 -0.00000 0.97975
						}
					}
				}
			}
		}
	}
	JOINT RHipJoint
	{
		OFFSET 0 0 0
		CHANNELS 3 Zrotation Yrotation Xrotation
		JOINT RightHip
		{
			OFFSET -1.77926 -1.80163 0.38499
			CHANNELS 3 Zrotation Yrotation Xrotation
			JOINT RightKnee
			{
				OFFSET -2.51996 -6.92353 0.00000
				CHANNELS 3 Zrotation Yrotation Xrotation
				JOINT RightAnkle
				{
					OFFSET -2.76109 -7.58603 0.00000
					CHANNELS 3 Zrotation Yrotation Xrotation
					JOINT RightToe
					{
						OFFSET -0.08067 -0.22163 1.86812
						CHANNELS 3 Zrotation Yrotation Xrotation
						End Site
						{
							OFFSET -0.00000 -0.00000 0.95558
						}
					}
				}
			}
		}
	}
	JOINT lowerback
	{
		OFFSET 0 0 0
		CHANNELS 3 Zrotation Yrotation Xrotation
		JOINT Chest
		{
			OFFSET 0.05537 1.92033 -0.03713
			CHANNELS 3 Zrotation Yrotation Xrotation
			JOINT Chest2
			{
				OFFSET 0.04452 1.90073 0.10860
				CHANNELS 3 Zrotation Yrotation Xrotation
				JOINT lowerneck
				{
					OFFSET 0 0 0
					CHANNELS 3 Zrotation Yrotation Xrotation
					JOINT Neck
					{
						OFFSET 0.00903 1.74649 0.02074
						CHANNELS 3 Zrotation Yrotation Xrotation
						JOINT Head
						{
							OFFSET -0.08608 1.67844 -0.12081
							CHANNELS 3 Zrotation Yrotation Xrotation
							End Site
							{
								OFFSET -0.03521 1.83380 -0.05059
							}
						}
					}
				}
				JOINT LeftCollar
				{
					OFFSET 0 0 0
					CHANNELS 3 Zrotation Yrotation Xrotation
					JOINT LeftShoulder
					{
						OFFSET 3.28197 0.84325 -0.19106
CHANNELS 3 Zrotation Xrotation Yrotation
						JOINT LeftElbow
						{
OFFSET 0 -5.243180 -0.000000
CHANNELS 3 Zrotation Xrotation Yrotation
							JOINT LeftWrist
							{
OFFSET 0 -2.989990 0.000000
CHANNELS 3 Zrotation Xrotation Yrotation
								JOINT lhand
								{
									OFFSET 0 0 0
CHANNELS 3 Zrotation Xrotation Yrotation
									JOINT LFingers
									{
OFFSET 0 -0.726740 0.000000
CHANNELS 3 Zrotation Xrotation Yrotation
										End Site
										{
OFFSET 0 -0.585920 0.000000
										}
									}
								}
								JOINT LThumb
								{
OFFSET 0 0.000000 0.000000
CHANNELS 3 Zrotation Xrotation Yrotation
									End Site
									{
OFFSET 0 -0.594870 0.594870
									}
								}
							}
						}
					}
				}
				JOINT RightCollar
				{
					OFFSET 0 0 0
					CHANNELS 3 Zrotation Yrotation Xrotation
					JOINT RightShoulder
					{
						OFFSET -3.30963 0.78377 0.14264
CHANNELS 3 Zrotation Xrotation Yrotation
						JOINT RightElbow
						{
OFFSET 0 -5.370450 0.000000
CHANNELS 3 Zrotation Xrotation Yrotation
							JOINT RightWrist
							{
OFFSET 0 -2.927920 0.000000
CHANNELS 3 Zrotation Xrotation Yrotation
								JOINT rhand
								{
									OFFSET 0 0 0
CHANNELS 3 Zrotation Xrotation Yrotation
									JOINT RFingers
									{
OFFSET 0 -0.784500 0.000000
CHANNELS 3 Zrotation Xrotation Yrotation
										End Site
										{
OFFSET 0 -0.632480 0.000000
										}
									}
								}
								JOINT RThumb
								{
OFFSET 0 0.000000 0.000000
CHANNELS 3 Zrotation Xrotation Yrotation
									End Site
									{
OFFSET 0 -0.642140 0.642140
									}
								}
							}
						}
					}
				}
			}
		}
	}
}
MOTION
Frames: 8
Frame Time: .0083333
0.2044 18.2730 0.2279 -3.4791 0.2859 9.4716 0.0000 0.0000 0.0000 -13.4928 -30.1944 -4.5962 1.0279 6.4493 18.0938 -1.7356 23.2184 -14.9932 0.3917 -4.0185 -11.1288 0.0000 0.0000 0.0000 0.0000 0.0000 0.0000 0.0000 0.0000 0.0000 -0.0000 -0.0000 0.0000 -0.0000 -0.0000 0.0000 3.0809 -0.3013 -6.6455 2.2086 -0.5946 -3.4928 0.5037 -0.3176 0.1157 2.9925 0.1784 -9.3143 -5.0068 0.4754 12.1467 -2.0187 0.0301 5.1995 0.0000 0.0000 0.0000 26.0701 -26.4299 -12.8753 61.3131 -56.6498 35.4358 13.5865 -11.277 -16.9114 0.0 0.0 0.0 -7.1250 0.0 0.0 -13.5663 46.8855 0.6427 0.0000 0.0000 0.0000 -57.156 -34.6356 -16.5543 -52.7148 -54.0334 -28.3571 -11.2981 -8.6171 -8.9938 0.0 0.0 0.0 7.1250 0.0 -0.0 11.1985 20.8839 6.5958
0.2057 18.2737 0.2314 -3.4288 0.2078 9.4820 0.0000 0.0000 0.0000 -13.5668 -30.1792 -4.5123 1.0132 6.4043 17.9622 -1.7636 23.3412 -14.8607 0.4097 -4.1087 -11.3828 0.0000 0.0000 0.0000 0.0000 0.0000 0.0000 0.0000 0.0000 0.0000 -0.0000 -0.0000 0.0000 -0.0000 -0.0000 0.0000 3.0591 -0.2643 -6.6458 2.2067 -0.5449 -3.4733 0.5172 -0.2922 0.1368 2.8614 0.1506 -9.2988 -4.9151 0.4444 12.1282 -1.9703 0.0154 5.1895 -0.0000 0.0000 0.0000 25.8655 -25.8202 -12.1087 58.4823 -55.8918 33.0814 13.1496 -11.1117 -17.3482 0.0 0.0 0.0 -7.1250 0.0 0.0 -14.1135 47.259 0.802 -0.0000 0.0000 0.0000 -56.2054 -33.9692 -17.2733 -50.9653 -53.3775 -26.947 -10.8362 -7.8549 -8.1382 0.0 0.0 0.0 7.1250 0.0 -0.0 11.5777 21.7543 6.5949
0.2059 18.2725 0.2363 -3.4084 0.0994 9.4657 0.0000 0.0000 0.0000 -13.6238 -30.1230 -4.4484 1.0089 6.3911 17.9235 -1.7580 23.3510 -15.0586 0.3812 -3.9650 -10.9782 0.0000 0.0000 0.0000 0.0000 0.0000 0.0000 0.0000 0.0000 0.0000 -0.0000 -0.0000 0.0000 -0.0000 -0.0000 0.0000 3.0227 -0.2408 -6.6129 2.2265 -0.5108 -3.4552 0.5602 -0.2745 0.1383 2.8237 0.1452 -9.3011 -4.8905 0.4409 12.1792 -1.9571 0.0133 5.2055 -0.0000 -0.0000 0.0000 25.6888 -25.194 -11.2862 55.6314 -55.0287 30.7327 12.6267 -10.9424 -17.7052 0.0 0.0 0.0 -7.1250 0.0 0.0 -14.7188 47.5396 0.9417 -0.0000 -0.0000 0.0000 -55.191 -33.2408 -17.8365 -49.3022 -52.7101 -25.6179 -10.678 -7.1474 -7.2644 0.0 0.0 0.0 7.1250 0.0 -0.0 11.7488 22.6295 6.4566
0.2069 18.2722 0.2405 -3.3916 0.0580 9.5052 0.0000 0.0000 0.0000 -13.6476 -30.1623 -4.4310 1.0057 6.3813 17.8950 -1.7493 23.3469 -15.2632 0.3338 -3.7128 -10.2700 0.0000 0.0000 0.0000 0.0000 0.0000 0.0000 0.0000 0.0000 0.0000 -0.0000 -0.0000 0.0000 -0.0000 -0.0000 0.0000 3.0050 -0.2383 -6.6146 2.2487 -0.5073 -3.4416 0.5931 -0.2721 0.1538 2.8434 0.1457 -9.3253 -4.9404 0.4444 12.1602 -1.9757 0.0123 5.2040 -0.0000 0.0000 0.0000 25.4762 -24.645 -10.4575 52.8138 -54.0692 28.4372 12.3233 -10.7901 -17.9632 0.0 0.0 0.0 -7.1250 0.0 0.0 -15.0906 47.7509 1.0467 -0.0000 0.0000 0.0000 -54.2307 -32.4291 -18.2271 -47.5496 -51.9581 -24.2306 -10.6814 -6.845 -6.7747 0.0 0.0 0.0 7.1250 0.0 -0.0 11.7809 23.117 6.3403
0.2079 18.2715 0.2437 -3.4280 0.0398 9.5581 0.0000 0.0000 0.0000 -13.5872 -30.1809 -4.4753 1.0067 6.3843 17.9036 -1.7401 23.3306 -15.4161 0.3115 -3.5881 -9.9207 0.0000 0.0000 0.0000 0.0000 0.0000 0.0000 0.0000 0.0000 0.0000 -0.0000 -0.0000 0.0000 -0.0000 -0.0000 0.0000 3.0628 -0.2411 -6.6094 2.2710 -0.5144 -3.4376 0.5833 -0.2762 0.1544 2.8450 0.1471 -9.3708 -4.9559 0.4467 12.1457 -1.9806 0.0120 5.2074 0.0000 0.0000 0.0000 25.2781 -24.103 -9.6459 50.0661 -53.0221 26.227 12.4248 -10.6177 -18.1557 0.0 0.0 0.0 -7.1250 0.0 0.0 -15.0661 47.9533 1.1216 0.0000 0.0000 0.0000 -53.2586 -31.6084 -18.5868 -45.7834 -51.1466 -22.8472 -10.6231 -6.6252 -6.529 0.0 0.0 0.0 7.1250 0.0 -0.0 11.8415 23.363 6.3058
0.2085 18.2722 0.2468 -3.4790 0.0437 9.6323 0.0000 0.0000 0.0000 -13.4972 -30.1702 -4.5552 1.0079 6.3879 17.9142 -1.7252 23.2681 -15.4910 0.2988 -3.5146 -9.7148 0.0000 0.0000 0.0000 0.0000 0.0000 0.0000 0.0000 0.0000 0.0000 -0.0000 -0.0000 0.0000 -0.0000 -0.0000 0.0000 3.1304 -0.2512 -6.6856 2.3043 -0.5370 -3.4074 0.5776 -0.2871 0.2271 2.8322 0.1562 -9.4049 -4.9575 0.4586 12.0908 -1.9778 0.0171 5.1966 -0.0000 0.0000 0.0000 25.0877 -23.6124 -8.7781 47.3157 -51.8538 24.0464 12.4884 -10.2867 -18.355 0.0 0.0 0.0 -7.1250 0.0 0.0 -15.0796 48.1572 1.2 -0.0000 0.0000 0.0000 -52.1954 -30.9529 -19.2852 -44.4430 -50.4927 -21.8081 -10.2429 -5.869 -6.0716 0.0 0.0 0.0 7.1250 0.0 -0.0 12.1540 23.8257 6.3469
0.2095 18.2734 0.2492 -3.4718 0.0799 9.6802 0.0000 0.0000 0.0000 -13.4814 -30.1851 -4.6024 1.0079 6.3879 17.9142 -1.7320 23.2778 -15.3684 0.3188 -3.6293 -10.0360 0.0000 0.0000 0.0000 0.0000 0.0000 0.0000 0.0000 0.0000 0.0000 -0.0000 -0.0000 0.0000 -0.0000 -0.0000 0.0000 3.1296 -0.2860 -6.7304 2.3333 -0.5867 -3.3789 0.6041 -0.3110 0.2810 2.8581 0.1693 -9.3727 -4.9996 0.4750 11.9841 -1.9932 0.0246 5.1589 0.0000 -0.0000 0.0000 24.9919 -23.0187 -8.0675 44.6300 -50.5859 21.9525 12.5775 -9.8509 -18.5776 0.0 0.0 0.0 -7.1250 0.0 0.0 -15.0788 48.3878 1.2873 0.0000 -0.0000 0.0000 -51.0688 -30.3811 -20.1151 -43.3140 -49.9153 -20.9407 -9.653 -4.7292 -5.309 0.0 0.0 0.0 7.1250 0.0 -0.0 12.6512 24.5917 6.3888
0.2092 18.2724 0.2508 -3.4513 0.1146 9.6937 0.0000 0.0000 0.0000 -13.4803 -30.2010 -4.6380 1.0075 6.3868 17.9111 -1.7415 23.3045 -15.2568 0.3331 -3.7093 -10.2602 0.0000 0.0000 0.0000 0.0000 0.0000 0.0000 0.0000 0.0000 0.0000 -0.0000 -0.0000 0.0000 -0.0000 -0.0000 0.0000 3.1099 -0.3179 -6.6839 2.3561 -0.6265 -3.3627 0.6361 -0.3305 0.2719 2.8694 0.1901 -9.3495 -5.0231 0.5037 11.9422 -1.9999 0.0381 5.1432 0.0000 0.0000 0.0000 24.9568 -22.3335 -7.5734 42.0606 -49.2444 19.9864 12.8283 -9.4494 -18.6124 0.0 0.0 0.0 -7.1250 0.0 0.0 -14.8578 48.4575 1.2936 0.0000 0.0000 0.0000 -50.0998 -29.5201 -20.4432 -41.9304 -49.1729 -19.8879 -9.5179 -4.07 -4.7 0.0 0.0 0.0 7.1250 0.0 -0.0 12.8071 25.1957 6.2867
